<svg width="560" height="560" viewBox="0 0 560 560" fill="none" xmlns="http://www.w3.org/2000/svg">
<path d="M252 164C333.6 66 443.667 -10.6667 544 14.5C770 65.5 651.5 400 558.5 482C465.5 564 126.5 523 42.4999 434.5C-75.766 309.899 150 286.5 252 164Z" fill="#080047"/>
<path d="M299.874 559.483C465.489 559.483 599.747 548.784 599.747 535.587C599.747 522.39 465.489 511.691 299.874 511.691C134.258 511.691 0 522.39 0 535.587C0 548.784 134.258 559.483 299.874 559.483Z" fill="#0E0E2C"/>
<path d="M582.636 520.873H402.421L438.354 311.851H567.381C570.588 311.851 573.229 314.374 573.375 317.578L582.636 520.873Z" fill="#0E0E2C"/>
<path d="M582.636 520.873H566.835L557.967 311.851H567.381C570.588 311.851 573.229 314.374 573.375 317.578L582.636 520.873Z" fill="#A6A6A6"/>
<path d="M85.1638 520.873L147.342 520.571L209.509 520.458L333.853 520.244L458.198 520.458L520.365 520.571L582.543 520.873L520.365 521.187L458.198 521.288L333.853 521.501L209.509 521.288L147.342 521.187L85.1638 520.873Z" fill="#263238"/>
<path d="M432.848 347.07C421.377 397.034 398.15 460.285 380.221 473.052C365.758 483.348 289.83 501.471 285.605 501.932C275.115 502.988 254.359 428.95 265.28 425.944C278.983 422.15 344.035 420.127 347.74 416.332C351.445 412.538 375.251 380.295 402.063 343.142C420.543 317.476 439.961 316.077 432.848 347.07Z" fill="#AE7461"/>
<path d="M293.996 497.87C292.747 498.495 275.026 507.407 264.06 510.592C255.891 512.957 232.159 519.147 228.662 510.413C226.267 504.461 239.777 499.164 249.255 495.207C254.254 493.138 260.414 487.901 258.941 484.702C256.367 479.078 243.512 484.702 235.06 489.627C218.693 499.135 196.925 516.231 186.941 507.928C183.177 504.804 187.551 499.09 193.964 493.495C183.549 500.012 172.464 505.399 168.134 502.051C165.664 500.161 165.545 497.587 166.929 494.611C163.715 495.653 160.873 495.445 158.894 493.361C155.517 489.82 157.153 484.598 160.858 479.241C160.224 479.171 159.615 478.951 159.082 478.599C158.549 478.247 158.107 477.774 157.793 477.218C150.621 466.296 186.465 434.946 198.874 432.015C235.343 423.34 274.133 426.51 274.133 426.51C288.461 437.952 294.026 497.84 293.996 497.87Z" fill="#AE7461"/>
<path d="M240.357 464.288C231.674 465.64 223.38 468.831 216.03 473.647C206.775 479.762 200.645 486.904 192.893 494.091C192.865 494.131 192.851 494.18 192.853 494.23C192.856 494.279 192.875 494.327 192.907 494.364C192.939 494.402 192.983 494.427 193.032 494.437C193.081 494.447 193.131 494.44 193.176 494.418C196.866 490.996 212.191 478.14 216.149 475.224C223.294 469.835 231.573 466.146 240.357 464.436C240.491 464.422 240.461 464.273 240.357 464.288Z" fill="#263238"/>
<path d="M233.572 448.813C223.99 451.432 214.229 454.081 205.302 458.619C195.556 463.574 187.938 471.668 180.454 479.45C175.95 484.122 171.556 488.898 167.271 493.778C167.092 493.972 167.36 494.299 167.554 494.091C175.152 486.056 182.993 478.249 191.077 470.671C198.529 463.601 207.301 458.069 216.893 454.393C222.383 452.31 228.007 450.644 233.632 448.977C233.706 448.947 233.676 448.784 233.572 448.813Z" fill="#263238"/>
<path d="M223.335 435.273C214.021 437.193 205.897 438.83 197.639 443.814C186.733 450.42 176.184 461.55 172.494 465.508C168.402 469.867 164.474 474.435 160.59 478.899C160.427 479.078 160.754 479.36 160.918 479.167C169.772 469.188 179.26 459.79 189.322 451.03C194.057 446.792 199.417 443.309 205.213 440.704C211.087 438.394 217.151 436.597 223.335 435.333C223.335 435.333 223.365 435.273 223.335 435.273Z" fill="#263238"/>
<path d="M348.291 409.042L418.222 406.066C418.222 406.066 430.929 371.383 435.601 340.598C440.273 309.813 414.041 320.853 388.077 353.989C362.113 387.125 348.291 409.042 348.291 409.042Z" fill="#A588B0"/>
<path d="M371.189 388.107C371.665 387.973 372.141 387.928 372.677 387.824C373.092 387.733 373.521 387.736 373.934 387.832C374.347 387.929 374.734 388.117 375.065 388.382C375.396 388.648 375.663 388.984 375.847 389.366C376.032 389.748 376.128 390.167 376.129 390.591C376.121 390.973 376.211 391.35 376.391 391.686C376.57 392.022 376.834 392.306 377.156 392.511C377.509 392.739 377.912 392.877 378.331 392.913C378.807 393.002 379.283 393.061 379.819 393.195C379.343 393.329 378.867 393.389 378.331 393.493C377.796 393.6 377.241 393.543 376.739 393.329C376.211 393.099 375.762 392.721 375.445 392.24C375.128 391.759 374.957 391.197 374.954 390.621C374.95 390.244 374.848 389.873 374.657 389.547C374.467 389.221 374.195 388.95 373.867 388.761C373.505 388.548 373.097 388.425 372.677 388.404C372.141 388.315 371.665 388.255 371.189 388.107ZM420.394 345.612C420.819 345.643 421.231 345.77 421.6 345.984C421.925 346.175 422.195 346.446 422.386 346.772C422.576 347.098 422.679 347.467 422.686 347.844C422.69 348.42 422.86 348.982 423.177 349.462C423.494 349.943 423.944 350.322 424.471 350.552C424.975 350.761 425.53 350.813 426.063 350.701C426.54 350.611 427.016 350.552 427.551 350.418C427.075 350.284 426.599 350.224 426.063 350.135C425.644 350.102 425.24 349.964 424.888 349.733C424.569 349.526 424.308 349.241 424.128 348.905C423.949 348.57 423.857 348.195 423.861 347.814C423.841 347.236 423.654 346.676 423.321 346.203C422.988 345.73 422.524 345.364 421.987 345.151C421.475 344.972 420.925 344.936 420.394 345.047C419.918 345.136 419.442 345.195 418.981 345.329C419.457 345.463 419.933 345.523 420.394 345.612ZM422.18 372.885C421.859 373.164 421.477 373.363 421.064 373.466C420.702 373.564 420.322 373.566 419.959 373.472C419.596 373.378 419.264 373.191 418.996 372.93C418.587 372.521 418.069 372.24 417.503 372.121C416.938 372.003 416.35 372.051 415.812 372.26C415.309 372.476 414.88 372.833 414.577 373.287C414.309 373.689 414.011 374.061 413.773 374.492C414.205 374.254 414.577 373.957 414.978 373.689C415.304 373.423 415.686 373.235 416.094 373.138C416.467 373.059 416.854 373.077 417.219 373.189C417.583 373.301 417.913 373.503 418.177 373.778C418.48 374.087 418.849 374.322 419.257 374.468C419.664 374.613 420.099 374.664 420.529 374.617C420.958 374.569 421.372 374.425 421.738 374.195C422.104 373.964 422.413 373.654 422.641 373.287C422.909 372.885 423.207 372.498 423.445 372.067C422.969 372.32 422.597 372.617 422.195 372.885H422.18ZM403.164 341.074C402.839 341.35 402.459 341.553 402.049 341.669C401.683 341.76 401.3 341.758 400.936 341.662C400.572 341.565 400.238 341.379 399.965 341.118L399.593 340.791C399.311 341.074 399.043 341.357 398.775 341.654C398.917 341.741 399.047 341.846 399.162 341.967C399.584 342.364 400.114 342.629 400.684 342.729C401.255 342.83 401.843 342.761 402.376 342.532C402.865 342.3 403.277 341.933 403.566 341.476C403.834 341.074 404.132 340.702 404.37 340.27C404.027 340.494 403.581 340.806 403.179 341.074H403.164ZM395.264 367.276C395.235 367.699 395.113 368.111 394.907 368.481C394.713 368.804 394.441 369.073 394.116 369.263C393.791 369.453 393.423 369.558 393.047 369.567C392.468 369.568 391.903 369.738 391.419 370.055C390.936 370.372 390.555 370.823 390.324 371.353C390.122 371.853 390.071 372.401 390.175 372.93C390.279 373.406 390.324 373.882 390.458 374.418C390.592 373.942 390.651 373.466 390.755 372.93C390.795 372.514 390.927 372.113 391.142 371.755C391.351 371.438 391.636 371.179 391.972 371.002C392.307 370.825 392.682 370.736 393.062 370.743C393.642 370.726 394.205 370.539 394.681 370.206C395.157 369.873 395.525 369.408 395.74 368.868C395.912 368.355 395.948 367.807 395.844 367.276C395.74 366.8 395.68 366.324 395.546 365.788C395.412 366.324 395.368 366.8 395.264 367.276ZM415.291 393.924C415.269 394.349 415.147 394.762 414.934 395.13C414.743 395.455 414.471 395.725 414.146 395.916C413.82 396.106 413.451 396.209 413.074 396.216C412.5 396.218 411.939 396.387 411.458 396.701C410.978 397.015 410.598 397.462 410.366 397.986C410.153 398.489 410.096 399.043 410.202 399.578C410.306 400.055 410.366 400.531 410.5 401.066C410.634 400.59 410.693 400.114 410.783 399.578C410.821 399.16 410.959 398.757 411.184 398.403C411.391 398.084 411.676 397.823 412.012 397.646C412.348 397.469 412.724 397.381 413.104 397.391C413.682 397.371 414.242 397.184 414.715 396.851C415.188 396.518 415.553 396.054 415.767 395.516C415.946 395.005 415.982 394.455 415.871 393.924C415.782 393.448 415.722 392.972 415.588 392.436C415.455 392.972 415.395 393.448 415.291 393.924Z" fill="white"/>
<path d="M420.647 390.889C405.515 390.502 390.339 391.172 375.207 392.139C370.921 392.427 366.646 392.804 362.381 393.27C362.262 393.27 362.247 393.463 362.381 393.463C369.939 393.463 377.498 393.21 385.057 392.987C392.615 392.764 400.233 392.451 407.807 392.02C412.092 391.767 416.362 391.514 420.633 391.172C420.826 391.157 420.841 390.889 420.647 390.889Z" fill="#263238"/>
<path d="M367.916 520.873H546.465C548.429 517.272 519.147 360.818 458.917 316.761C445.525 307.001 421.853 313.28 415.261 322.787C382.17 370.549 367.916 520.873 367.916 520.873Z" fill="#A588B0"/>
<path d="M443.665 388.107C444.142 387.973 444.618 387.928 445.153 387.824C445.568 387.733 445.997 387.736 446.411 387.832C446.824 387.929 447.21 388.117 447.541 388.382C447.872 388.648 448.14 388.984 448.324 389.366C448.508 389.749 448.604 390.167 448.605 390.592C448.597 390.973 448.687 391.35 448.867 391.686C449.047 392.022 449.31 392.306 449.632 392.511C449.986 392.737 450.389 392.874 450.807 392.913C451.284 393.002 451.76 393.061 452.295 393.195C451.819 393.329 451.343 393.389 450.807 393.493C450.272 393.599 449.718 393.542 449.215 393.329C448.688 393.099 448.238 392.721 447.921 392.24C447.604 391.759 447.434 391.197 447.43 390.621C447.426 390.244 447.324 389.873 447.134 389.547C446.943 389.221 446.671 388.95 446.344 388.761C445.982 388.546 445.573 388.424 445.153 388.404C444.618 388.315 444.201 388.255 443.665 388.107ZM471.415 482.544C471.835 482.575 472.242 482.702 472.605 482.916C472.931 483.103 473.203 483.371 473.393 483.695C473.584 484.018 473.687 484.386 473.692 484.761C473.692 485.34 473.862 485.905 474.179 486.389C474.496 486.872 474.947 487.253 475.477 487.484C475.982 487.686 476.535 487.738 477.069 487.633C477.545 487.544 478.021 487.484 478.557 487.35C478.081 487.216 477.605 487.157 477.069 487.053C476.651 487.026 476.246 486.893 475.894 486.666C475.575 486.458 475.314 486.173 475.134 485.838C474.955 485.502 474.863 485.127 474.867 484.747C474.859 484.165 474.676 483.6 474.341 483.125C474.007 482.65 473.536 482.287 472.992 482.083C472.488 481.896 471.94 481.86 471.415 481.979C470.939 482.068 470.463 482.128 469.927 482.262C470.463 482.41 470.984 482.47 471.415 482.559V482.544ZM504.149 393.493C504.569 393.514 504.977 393.637 505.339 393.85C505.666 394.039 505.939 394.31 506.129 394.636C506.32 394.962 506.422 395.332 506.426 395.71C506.429 396.286 506.6 396.848 506.917 397.329C507.234 397.809 507.683 398.188 508.211 398.418C508.713 398.632 509.268 398.689 509.803 398.582C510.279 398.477 510.755 398.418 511.291 398.284C510.815 398.15 510.339 398.091 509.803 398.001C509.384 397.966 508.981 397.828 508.628 397.6C508.306 397.395 508.042 397.111 507.863 396.774C507.683 396.438 507.593 396.061 507.601 395.68C507.6 395.256 507.504 394.837 507.319 394.455C507.135 394.073 506.868 393.736 506.537 393.471C506.206 393.206 505.819 393.018 505.406 392.921C504.993 392.824 504.563 392.822 504.149 392.913C503.673 393.017 503.197 393.061 502.661 393.195C503.227 393.344 503.718 393.404 504.179 393.508L504.149 393.493ZM420.395 345.612C420.819 345.643 421.231 345.77 421.6 345.984C421.925 346.175 422.196 346.446 422.386 346.772C422.576 347.098 422.679 347.467 422.686 347.844C422.69 348.42 422.86 348.982 423.177 349.462C423.494 349.943 423.944 350.322 424.471 350.552C424.975 350.761 425.53 350.813 426.063 350.701C426.54 350.611 427.016 350.552 427.551 350.418C427.075 350.284 426.599 350.224 426.063 350.135C425.644 350.102 425.24 349.964 424.888 349.733C424.569 349.526 424.308 349.241 424.129 348.905C423.949 348.57 423.857 348.195 423.861 347.814C423.842 347.236 423.654 346.676 423.321 346.203C422.988 345.73 422.524 345.364 421.987 345.151C421.475 344.972 420.925 344.936 420.395 345.047C419.918 345.136 419.442 345.195 418.981 345.329C419.457 345.463 419.933 345.523 420.395 345.612ZM471.951 344.541C472.374 344.569 472.785 344.691 473.156 344.898C473.479 345.091 473.748 345.363 473.938 345.688C474.128 346.013 474.233 346.381 474.242 346.758C474.243 347.336 474.412 347.901 474.729 348.385C475.046 348.868 475.498 349.249 476.028 349.481C476.533 349.682 477.086 349.734 477.62 349.629C478.081 349.525 478.557 349.466 479.033 349.347C478.557 349.213 478.081 349.153 477.62 349.049C477.199 349.011 476.792 348.879 476.429 348.662C476.112 348.454 475.853 348.168 475.676 347.833C475.499 347.497 475.41 347.122 475.417 346.743C475.401 346.162 475.214 345.599 474.881 345.123C474.548 344.647 474.083 344.279 473.543 344.065C473.031 343.886 472.481 343.849 471.951 343.96C471.475 344.064 470.998 344.124 470.463 344.258C470.983 344.377 471.489 344.436 471.966 344.541H471.951ZM407.747 427.864C408.17 427.892 408.582 428.014 408.952 428.221C409.274 428.415 409.541 428.687 409.728 429.012C409.916 429.338 410.017 429.705 410.024 430.081C410.025 430.659 410.194 431.224 410.511 431.708C410.828 432.192 411.279 432.572 411.809 432.804C412.315 433.005 412.867 433.057 413.401 432.952C413.877 432.863 414.354 432.804 414.889 432.67C414.413 432.536 413.937 432.476 413.401 432.372C412.984 432.339 412.581 432.206 412.226 431.985C411.907 431.777 411.646 431.493 411.466 431.157C411.287 430.822 411.195 430.446 411.199 430.066C411.193 429.484 411.011 428.918 410.676 428.443C410.341 427.967 409.87 427.604 409.324 427.402C408.82 427.214 408.272 427.178 407.747 427.298C407.271 427.388 406.795 427.447 406.259 427.581C406.81 427.655 407.286 427.715 407.762 427.804L407.747 427.864ZM463.961 514.162C464.384 514.189 464.796 514.311 465.166 514.52C465.489 514.713 465.758 514.985 465.948 515.31C466.138 515.635 466.243 516.003 466.252 516.379C466.262 516.944 466.432 517.495 466.743 517.966C467.054 518.438 467.492 518.811 468.008 519.043C468.513 519.245 469.066 519.296 469.6 519.192C470.076 519.087 470.552 519.028 471.088 518.894C470.612 518.76 470.135 518.715 469.6 518.611C469.18 518.578 468.776 518.44 468.424 518.21C468.105 518.006 467.843 517.724 467.663 517.391C467.483 517.058 467.392 516.684 467.398 516.305C467.396 515.879 467.3 515.458 467.115 515.074C466.93 514.69 466.661 514.352 466.329 514.086C465.997 513.819 465.609 513.63 465.194 513.532C464.779 513.435 464.347 513.432 463.931 513.523C463.455 513.627 462.993 513.686 462.443 513.82C463.038 513.91 463.544 513.969 463.975 514.073L463.961 514.162ZM436.285 467.814C436.71 467.836 437.123 467.958 437.491 468.171C437.816 468.361 438.086 468.632 438.274 468.958C438.462 469.285 438.561 469.655 438.562 470.031C438.566 470.607 438.736 471.169 439.053 471.65C439.37 472.13 439.82 472.509 440.347 472.739C440.85 472.952 441.404 473.009 441.939 472.903C442.416 472.799 442.892 472.739 443.427 472.605C442.951 472.471 442.475 472.412 441.939 472.322C441.521 472.284 441.118 472.146 440.764 471.921C440.43 471.714 440.158 471.421 439.977 471.073C439.797 470.725 439.714 470.334 439.737 469.942C439.734 469.517 439.636 469.098 439.45 468.716C439.264 468.334 438.995 467.998 438.663 467.732C438.331 467.467 437.944 467.28 437.53 467.183C437.116 467.087 436.686 467.084 436.271 467.174C435.794 467.264 435.318 467.323 434.783 467.457C435.348 467.561 435.824 467.621 436.3 467.725L436.285 467.814ZM372.9 515.323C372.482 515.285 372.079 515.147 371.725 514.921C371.403 514.718 371.14 514.434 370.962 514.097C370.785 513.76 370.699 513.382 370.713 513.002C370.692 512.459 370.523 511.932 370.224 511.478C369.925 511.024 369.508 510.661 369.017 510.428C369.017 510.815 368.928 511.172 368.898 511.529C369.097 511.722 369.255 511.953 369.363 512.209C369.47 512.465 369.525 512.739 369.523 513.017C369.527 513.593 369.697 514.155 370.014 514.635C370.331 515.116 370.781 515.494 371.308 515.725C371.811 515.938 372.365 515.995 372.9 515.888C373.377 515.784 373.853 515.725 374.388 515.591C373.868 515.383 373.391 515.323 372.915 515.234L372.9 515.323ZM385.072 476.236C385.496 476.257 385.909 476.38 386.277 476.593C386.602 476.784 386.873 477.055 387.063 477.381C387.253 477.706 387.356 478.076 387.363 478.453C387.367 479.028 387.537 479.591 387.854 480.071C388.171 480.552 388.621 480.93 389.148 481.161C389.65 481.374 390.205 481.431 390.74 481.324C391.217 481.22 391.678 481.161 392.154 481.027C391.678 480.893 391.217 480.833 390.74 480.744C390.321 480.711 389.917 480.573 389.565 480.342C389.241 480.14 388.976 479.856 388.796 479.519C388.616 479.183 388.527 478.805 388.538 478.423C388.519 477.845 388.331 477.285 387.998 476.812C387.665 476.339 387.201 475.973 386.664 475.76C386.152 475.581 385.602 475.544 385.072 475.655C384.595 475.759 384.119 475.804 383.584 475.938C384.134 475.983 384.685 476.042 385.086 476.146L385.072 476.236ZM459.854 429.024C460.278 429.057 460.69 429.184 461.059 429.396C461.384 429.587 461.655 429.859 461.845 430.184C462.035 430.51 462.139 430.879 462.145 431.256C462.149 431.832 462.32 432.394 462.637 432.875C462.954 433.355 463.403 433.734 463.931 433.964C464.429 434.173 464.979 434.224 465.508 434.113C465.984 434.024 466.46 433.964 466.996 433.83C466.52 433.696 466.044 433.637 465.508 433.547C465.09 433.509 464.687 433.371 464.333 433.146C464.016 432.937 463.757 432.652 463.58 432.316C463.403 431.981 463.314 431.606 463.321 431.226C463.301 430.648 463.113 430.088 462.78 429.615C462.447 429.142 461.984 428.777 461.446 428.563C460.935 428.384 460.384 428.348 459.854 428.459C459.378 428.548 458.902 428.608 458.366 428.742C458.917 428.786 459.393 428.846 459.869 428.935L459.854 429.024ZM525.322 492.499C525.741 492.527 526.147 492.649 526.512 492.856C526.838 493.047 527.108 493.318 527.298 493.644C527.488 493.969 527.592 494.338 527.598 494.715C527.599 495.294 527.769 495.859 528.086 496.343C528.403 496.826 528.854 497.207 529.384 497.438C529.889 497.64 530.442 497.692 530.976 497.587C531.452 497.483 531.928 497.423 532.464 497.29C531.988 497.156 531.512 497.111 530.976 497.007C530.557 496.972 530.153 496.834 529.801 496.605C529.481 496.402 529.219 496.12 529.039 495.787C528.859 495.453 528.768 495.079 528.774 494.701C528.775 494.275 528.68 493.855 528.497 493.471C528.314 493.086 528.047 492.748 527.716 492.481C527.384 492.214 526.997 492.025 526.583 491.927C526.169 491.83 525.738 491.827 525.322 491.918C524.846 492.022 524.37 492.082 523.834 492.216C524.414 492.26 524.89 492.26 525.367 492.409L525.322 492.499ZM499.313 453.813C499.737 453.839 500.149 453.961 500.519 454.17C500.842 454.363 501.111 454.635 501.301 454.96C501.491 455.285 501.595 455.653 501.605 456.03C501.606 456.608 501.775 457.174 502.092 457.657C502.409 458.141 502.86 458.521 503.39 458.753C503.896 458.954 504.448 459.006 504.982 458.901C505.458 458.797 505.935 458.753 506.47 458.619C505.994 458.485 505.518 458.425 504.982 458.321C504.564 458.293 504.16 458.16 503.807 457.934C503.488 457.727 503.227 457.442 503.047 457.106C502.868 456.771 502.776 456.395 502.78 456.015C502.76 455.437 502.572 454.877 502.239 454.404C501.907 453.931 501.443 453.565 500.905 453.352C500.395 453.168 499.845 453.126 499.313 453.233C498.837 453.337 498.376 453.396 497.9 453.53C498.421 453.575 498.882 453.575 499.358 453.664L499.313 453.813ZM422.15 373.034C421.829 373.313 421.447 373.512 421.034 373.614C420.673 373.712 420.292 373.714 419.929 373.621C419.567 373.527 419.235 373.34 418.966 373.079C418.558 372.67 418.039 372.389 417.474 372.27C416.908 372.151 416.32 372.2 415.782 372.409C415.28 372.625 414.851 372.981 414.547 373.436C414.279 373.838 413.982 374.21 413.744 374.641C414.175 374.403 414.547 374.105 414.949 373.838C415.274 373.572 415.656 373.384 416.065 373.287C416.438 373.208 416.825 373.226 417.189 373.338C417.553 373.449 417.883 373.652 418.148 373.927C418.451 374.235 418.82 374.471 419.227 374.616C419.634 374.762 420.069 374.813 420.499 374.765C420.929 374.718 421.342 374.574 421.708 374.344C422.074 374.113 422.383 373.803 422.611 373.436C422.879 373.034 423.177 372.647 423.415 372.216C422.969 372.32 422.597 372.618 422.195 372.885L422.15 373.034ZM499.135 428.28C498.818 428.56 498.441 428.764 498.034 428.875C497.668 428.967 497.286 428.964 496.921 428.868C496.557 428.772 496.223 428.585 495.951 428.325C495.542 427.922 495.025 427.645 494.463 427.529C493.9 427.413 493.316 427.462 492.781 427.67C492.28 427.88 491.851 428.232 491.546 428.682C491.279 429.084 490.981 429.456 490.743 429.887C491.174 429.649 491.546 429.352 491.948 429.084C492.272 428.816 492.654 428.627 493.064 428.533C493.435 428.454 493.82 428.471 494.182 428.583C494.544 428.696 494.871 428.898 495.132 429.173C495.437 429.479 495.806 429.712 496.213 429.856C496.62 430 497.054 430.05 497.482 430.002C497.911 429.955 498.324 429.812 498.69 429.583C499.056 429.355 499.366 429.047 499.596 428.682C499.864 428.28 500.161 427.908 500.399 427.477C499.923 427.685 499.551 427.983 499.135 428.28ZM451.12 325.183C450.803 325.462 450.426 325.666 450.019 325.778C449.654 325.877 449.269 325.878 448.904 325.781C448.538 325.685 448.204 325.494 447.936 325.228C447.526 324.821 447.006 324.543 446.441 324.427C445.876 324.311 445.289 324.361 444.752 324.573C444.25 324.783 443.821 325.135 443.517 325.585C443.249 326.001 442.951 326.373 442.713 326.805C443.145 326.567 443.532 326.269 443.933 326.001C444.252 325.734 444.629 325.545 445.034 325.451C445.406 325.371 445.792 325.387 446.156 325.496C446.52 325.606 446.851 325.805 447.117 326.076C447.418 326.388 447.786 326.627 448.193 326.775C448.6 326.923 449.035 326.976 449.466 326.93C449.896 326.884 450.311 326.74 450.678 326.51C451.044 326.279 451.353 325.968 451.581 325.6C451.849 325.183 452.147 324.811 452.385 324.379C451.908 324.603 451.522 324.885 451.12 325.153V325.183ZM450.153 355.7C450.119 356.12 449.992 356.526 449.781 356.89C449.592 357.217 449.321 357.49 448.995 357.68C448.669 357.871 448.299 357.973 447.921 357.976C447.345 357.98 446.783 358.151 446.302 358.468C445.822 358.785 445.443 359.234 445.213 359.762C445.006 360.266 444.949 360.819 445.049 361.354C445.153 361.83 445.213 362.306 445.347 362.842C445.481 362.366 445.54 361.89 445.629 361.354C445.665 360.935 445.803 360.531 446.031 360.179C446.239 359.86 446.524 359.599 446.859 359.419C447.195 359.24 447.57 359.148 447.951 359.152C448.375 359.151 448.794 359.054 449.176 358.87C449.558 358.686 449.894 358.419 450.16 358.088C450.425 357.757 450.613 357.37 450.71 356.957C450.806 356.544 450.809 356.114 450.718 355.7C450.629 355.224 450.569 354.748 450.435 354.212C450.331 354.748 450.272 355.224 450.153 355.7ZM438.815 439.35C438.784 439.775 438.657 440.187 438.443 440.556C438.252 440.881 437.98 441.151 437.655 441.342C437.329 441.532 436.96 441.635 436.583 441.642C436.007 441.645 435.445 441.816 434.964 442.133C434.484 442.45 434.105 442.9 433.875 443.427C433.673 443.933 433.622 444.485 433.726 445.019C433.815 445.495 433.875 445.972 434.009 446.507C434.143 446.031 434.202 445.555 434.307 445.019C434.328 444.6 434.462 444.194 434.693 443.844C434.901 443.525 435.186 443.264 435.521 443.084C435.857 442.905 436.232 442.813 436.613 442.817C437.191 442.797 437.751 442.609 438.224 442.276C438.697 441.944 439.062 441.48 439.276 440.942C439.464 440.433 439.5 439.88 439.38 439.35C439.291 438.889 439.231 438.413 439.098 437.937C438.993 438.413 438.934 438.889 438.845 439.35H438.815ZM498.183 366.443H497.944C497.366 366.444 496.801 366.613 496.317 366.93C495.834 367.247 495.453 367.698 495.222 368.228C495.02 368.734 494.968 369.286 495.073 369.82C495.162 370.296 495.222 370.772 495.355 371.308C495.489 370.832 495.549 370.356 495.653 369.82C495.684 369.403 495.817 368.999 496.04 368.645C496.248 368.326 496.532 368.065 496.868 367.885C497.203 367.706 497.579 367.614 497.959 367.618C498.223 367.618 498.485 367.573 498.733 367.484L498.183 366.443ZM497.766 501.605C497.744 502.029 497.622 502.442 497.409 502.81C497.218 503.135 496.946 503.406 496.621 503.596C496.295 503.786 495.926 503.889 495.549 503.896C494.973 503.9 494.411 504.07 493.93 504.387C493.45 504.704 493.071 505.154 492.841 505.681C492.634 506.185 492.577 506.738 492.677 507.273C492.781 507.75 492.841 508.226 492.975 508.761C493.109 508.3 493.168 507.824 493.258 507.273C493.29 506.854 493.429 506.45 493.659 506.098C493.862 505.774 494.145 505.509 494.482 505.329C494.819 505.149 495.197 505.06 495.579 505.071C496.157 505.052 496.717 504.864 497.19 504.531C497.663 504.198 498.028 503.734 498.242 503.197C498.421 502.685 498.457 502.135 498.346 501.605C498.257 501.128 498.197 500.652 498.063 500.117C497.959 500.652 497.9 501.188 497.766 501.605ZM523.313 425.721C523.319 425.761 523.319 425.801 523.313 425.84C523.125 426.167 522.854 426.439 522.527 426.63C522.201 426.82 521.831 426.923 521.453 426.926C520.878 426.93 520.315 427.101 519.835 427.418C519.354 427.735 518.976 428.184 518.745 428.712C518.533 429.214 518.476 429.769 518.582 430.304C518.686 430.78 518.745 431.256 518.879 431.792C519.013 431.316 519.073 430.839 519.162 430.304C519.2 429.886 519.338 429.483 519.564 429.128C519.768 428.807 520.053 428.543 520.389 428.363C520.725 428.183 521.102 428.093 521.483 428.102C521.929 428.09 522.366 427.978 522.763 427.775C523.159 427.571 523.505 427.281 523.775 426.926L523.313 425.721ZM392.719 442.356C392.693 442.775 392.571 443.182 392.362 443.546C392.171 443.871 391.9 444.142 391.574 444.332C391.249 444.522 390.879 444.626 390.502 444.632C389.924 444.633 389.359 444.803 388.875 445.12C388.392 445.437 388.011 445.888 387.779 446.418C387.578 446.923 387.526 447.476 387.631 448.01C387.735 448.486 387.78 448.962 387.913 449.498C388.047 449.022 388.107 448.546 388.211 448.01C388.249 447.594 388.381 447.192 388.598 446.835C388.806 446.516 389.09 446.255 389.426 446.075C389.761 445.896 390.137 445.804 390.517 445.808C391.098 445.791 391.661 445.604 392.137 445.271C392.613 444.938 392.981 444.473 393.196 443.933C393.368 443.426 393.404 442.882 393.3 442.356C393.196 441.88 393.136 441.404 393.002 440.868C392.868 441.404 392.824 441.88 392.719 442.356ZM395.859 367.38L395.1 369.865C395.384 369.584 395.602 369.243 395.74 368.868C395.905 368.39 395.946 367.878 395.859 367.38V367.38ZM422.641 318.472C422.61 318.897 422.483 319.309 422.269 319.678C422.078 320.003 421.807 320.273 421.481 320.464C421.156 320.654 420.786 320.757 420.409 320.764C419.834 320.768 419.271 320.938 418.791 321.255C418.31 321.572 417.932 322.022 417.701 322.549C417.495 323.053 417.438 323.606 417.538 324.141C417.642 324.618 417.701 325.094 417.835 325.629C417.969 325.153 418.029 324.677 418.118 324.141C418.151 323.722 418.289 323.318 418.52 322.966C418.727 322.647 419.012 322.386 419.348 322.206C419.683 322.027 420.059 321.935 420.439 321.939C421.017 321.919 421.577 321.732 422.05 321.399C422.523 321.066 422.889 320.602 423.103 320.064C423.282 319.553 423.318 319.003 423.207 318.472C423.117 318.011 423.058 317.535 422.924 317.059C422.805 317.535 422.745 318.011 422.656 318.472H422.641ZM415.276 393.924C415.254 394.349 415.132 394.762 414.919 395.13C414.728 395.455 414.457 395.725 414.131 395.916C413.805 396.106 413.436 396.209 413.059 396.216C412.485 396.218 411.924 396.387 411.443 396.701C410.963 397.015 410.584 397.462 410.351 397.986C410.138 398.489 410.081 399.043 410.187 399.578C410.292 400.055 410.351 400.531 410.485 401.066C410.619 400.59 410.678 400.114 410.768 399.578C410.806 399.16 410.944 398.757 411.169 398.403C411.376 398.084 411.661 397.823 411.997 397.646C412.333 397.469 412.709 397.381 413.089 397.391C413.667 397.371 414.227 397.184 414.7 396.851C415.173 396.518 415.539 396.054 415.752 395.516C415.931 395.005 415.967 394.455 415.856 393.924C415.767 393.448 415.708 392.972 415.574 392.436C415.455 392.972 415.395 393.448 415.291 393.924H415.276ZM481.295 404.072C481.268 404.491 481.146 404.898 480.938 405.262C480.747 405.587 480.475 405.858 480.15 406.048C479.824 406.238 479.455 406.342 479.078 406.348C478.499 406.349 477.934 406.519 477.45 406.836C476.967 407.153 476.586 407.604 476.355 408.134C476.153 408.639 476.101 409.192 476.206 409.726C476.31 410.202 476.355 410.678 476.489 411.214C476.623 410.738 476.682 410.262 476.786 409.726C476.826 409.31 476.959 408.909 477.173 408.551C477.381 408.232 477.666 407.971 478.001 407.791C478.337 407.612 478.712 407.52 479.093 407.524C479.673 407.507 480.236 407.32 480.712 406.987C481.188 406.654 481.556 406.189 481.771 405.649C481.944 405.142 481.979 404.598 481.875 404.072C481.771 403.596 481.711 403.12 481.577 402.584C481.399 403.12 481.399 403.596 481.31 404.072H481.295ZM420.29 488.794C420.26 489.214 420.132 489.621 419.918 489.984C419.73 490.311 419.459 490.583 419.133 490.774C418.806 490.964 418.436 491.066 418.058 491.07C417.483 491.074 416.921 491.245 416.44 491.561C415.959 491.878 415.581 492.328 415.35 492.856C415.142 493.359 415.09 493.914 415.202 494.448C415.291 494.924 415.351 495.4 415.484 495.936C415.618 495.459 415.678 494.983 415.767 494.448C415.805 494.029 415.943 493.626 416.169 493.272C416.377 492.953 416.661 492.692 416.997 492.513C417.332 492.333 417.708 492.241 418.088 492.246C418.513 492.244 418.931 492.148 419.314 491.964C419.696 491.78 420.032 491.512 420.297 491.181C420.563 490.85 420.751 490.464 420.847 490.051C420.944 489.638 420.947 489.208 420.856 488.794C420.767 488.317 420.707 487.841 420.573 487.306C420.395 487.797 420.395 488.317 420.305 488.794H420.29ZM471.489 377.885C471.806 377.605 472.183 377.401 472.59 377.29C472.956 377.198 473.339 377.201 473.703 377.297C474.067 377.393 474.401 377.58 474.674 377.84C475.081 378.246 475.597 378.525 476.159 378.644C476.721 378.763 477.306 378.716 477.843 378.51C478.345 378.294 478.774 377.937 479.078 377.483C479.346 377.081 479.643 376.709 479.881 376.278C479.45 376.516 479.078 376.813 478.676 377.081C478.352 377.349 477.97 377.538 477.56 377.632C477.189 377.711 476.805 377.694 476.443 377.582C476.08 377.469 475.753 377.267 475.492 376.992C475.188 376.686 474.818 376.453 474.411 376.309C474.005 376.165 473.571 376.115 473.142 376.163C472.713 376.21 472.3 376.353 471.934 376.582C471.568 376.81 471.259 377.118 471.028 377.483C470.76 377.885 470.463 378.257 470.225 378.688C470.716 378.45 471.088 378.153 471.504 377.885H471.489ZM432.967 412.761C433.288 412.483 433.671 412.284 434.083 412.181C434.447 412.083 434.83 412.081 435.195 412.175C435.56 412.269 435.895 412.456 436.166 412.717C436.574 413.123 437.09 413.402 437.652 413.52C438.214 413.639 438.799 413.593 439.336 413.386C439.838 413.171 440.267 412.814 440.571 412.36C440.838 411.958 441.136 411.586 441.374 411.154C440.943 411.392 440.571 411.69 440.169 411.958C439.845 412.226 439.463 412.415 439.053 412.508C438.68 412.586 438.293 412.568 437.929 412.456C437.565 412.344 437.235 412.142 436.97 411.869C436.667 411.56 436.298 411.324 435.891 411.179C435.483 411.034 435.049 410.983 434.619 411.03C434.189 411.077 433.776 411.222 433.41 411.452C433.044 411.682 432.735 411.993 432.506 412.36C432.238 412.761 431.941 413.148 431.703 413.58C432.209 413.401 432.581 413.029 432.982 412.761H432.967ZM406.884 464.154C407.205 463.88 407.58 463.677 407.985 463.559C408.351 463.467 408.733 463.47 409.098 463.566C409.462 463.662 409.796 463.849 410.068 464.109C410.479 464.515 410.998 464.793 411.563 464.91C412.129 465.026 412.716 464.975 413.253 464.764C413.754 464.554 414.183 464.202 414.488 463.752C414.755 463.35 415.053 462.963 415.291 462.532C414.86 462.785 414.488 463.068 414.071 463.335C413.76 463.614 413.38 463.804 412.97 463.886C412.598 463.971 412.211 463.958 411.846 463.849C411.481 463.739 411.15 463.537 410.887 463.261C410.464 462.864 409.935 462.599 409.364 462.499C408.793 462.398 408.205 462.467 407.673 462.696C407.184 462.928 406.771 463.294 406.483 463.752C406.215 464.154 405.917 464.526 405.679 464.957C406.125 464.719 406.497 464.422 406.899 464.154H406.884ZM418.178 517.555C418.495 517.28 418.872 517.081 419.279 516.975C419.643 516.877 420.026 516.875 420.391 516.969C420.755 517.063 421.09 517.249 421.362 517.51C421.77 517.919 422.289 518.2 422.854 518.319C423.42 518.438 424.007 518.389 424.546 518.18C425.048 517.964 425.477 517.608 425.781 517.153C426.049 516.751 426.346 516.379 426.584 515.948C426.153 516.186 425.781 516.484 425.364 516.751C425.045 517.019 424.668 517.207 424.263 517.302C423.89 517.382 423.503 517.366 423.138 517.254C422.774 517.142 422.444 516.938 422.18 516.662C421.877 516.354 421.508 516.118 421.101 515.973C420.694 515.827 420.259 515.776 419.829 515.824C419.399 515.871 418.986 516.015 418.62 516.246C418.254 516.476 417.945 516.786 417.716 517.153C417.448 517.555 417.151 517.942 416.913 518.358C417.419 518.105 417.776 517.808 418.178 517.555ZM468.662 458.887C468.979 458.607 469.356 458.403 469.763 458.291C470.129 458.2 470.512 458.202 470.876 458.299C471.24 458.395 471.574 458.582 471.846 458.842C472.257 459.248 472.776 459.526 473.341 459.643C473.907 459.759 474.494 459.708 475.031 459.497C475.528 459.286 475.952 458.934 476.251 458.485C476.519 458.083 476.816 457.696 477.069 457.265C476.638 457.518 476.251 457.8 475.849 458.068C475.532 458.347 475.147 458.537 474.733 458.619C474.364 458.704 473.979 458.691 473.616 458.582C473.253 458.472 472.925 458.269 472.665 457.994C472.242 457.597 471.713 457.332 471.142 457.231C470.571 457.131 469.984 457.199 469.451 457.428C468.955 457.656 468.537 458.023 468.246 458.485C467.978 458.887 467.695 459.259 467.442 459.69C467.874 459.437 468.261 459.14 468.662 458.872V458.887ZM503.405 480.149C503.726 479.875 504.101 479.672 504.506 479.554C504.872 479.462 505.254 479.465 505.619 479.561C505.983 479.657 506.317 479.844 506.589 480.104C506.999 480.51 507.519 480.788 508.084 480.905C508.649 481.021 509.236 480.97 509.773 480.759C510.275 480.549 510.704 480.197 511.008 479.747C511.276 479.345 511.574 478.973 511.812 478.542C511.38 478.78 511.008 479.078 510.592 479.345C510.273 479.613 509.896 479.801 509.491 479.896C509.118 479.976 508.73 479.96 508.366 479.847C508.001 479.735 507.671 479.532 507.408 479.256C507.105 478.948 506.736 478.712 506.328 478.567C505.921 478.421 505.486 478.37 505.056 478.418C504.627 478.465 504.213 478.609 503.847 478.839C503.481 479.07 503.172 479.38 502.944 479.747C502.676 480.149 502.378 480.521 502.14 480.952C502.616 480.699 503.003 480.357 503.405 480.134V480.149ZM444.96 496.278C445.279 496.001 445.655 495.798 446.061 495.683C446.426 495.591 446.809 495.594 447.173 495.69C447.538 495.786 447.872 495.973 448.144 496.233C448.554 496.639 449.073 496.917 449.639 497.034C450.204 497.15 450.791 497.099 451.328 496.888C451.829 496.678 452.259 496.326 452.563 495.876C452.831 495.474 453.114 495.087 453.367 494.656C452.935 494.909 452.548 495.207 452.147 495.474C451.824 495.745 451.441 495.934 451.031 496.025C450.66 496.104 450.275 496.087 449.913 495.975C449.551 495.863 449.224 495.66 448.962 495.385C448.54 494.988 448.011 494.723 447.44 494.623C446.869 494.522 446.281 494.591 445.749 494.82C445.263 495.057 444.852 495.422 444.558 495.876C444.29 496.278 443.993 496.65 443.74 497.081C444.201 496.843 444.558 496.546 444.96 496.278ZM520.338 517.555C520.655 517.28 521.032 517.081 521.439 516.975C521.803 516.877 522.186 516.875 522.551 516.969C522.915 517.063 523.25 517.249 523.522 517.51C523.93 517.919 524.449 518.2 525.014 518.319C525.58 518.438 526.167 518.389 526.706 518.18C527.208 517.964 527.637 517.608 527.941 517.153C528.209 516.751 528.506 516.379 528.744 515.948C528.313 516.186 527.941 516.484 527.524 516.751C527.205 517.019 526.828 517.207 526.423 517.302C526.05 517.381 525.663 517.363 525.299 517.252C524.934 517.14 524.604 516.937 524.34 516.662C524.037 516.354 523.668 516.118 523.261 515.973C522.854 515.827 522.419 515.776 521.989 515.824C521.559 515.871 521.146 516.015 520.78 516.246C520.414 516.476 520.105 516.786 519.876 517.153C519.608 517.555 519.311 517.942 519.073 518.358C519.564 518.105 519.936 517.808 520.338 517.555ZM533.729 459.764C533.373 459.659 533.05 459.464 532.791 459.199C532.488 458.89 532.119 458.655 531.712 458.509C531.305 458.364 530.87 458.313 530.44 458.361C530.01 458.408 529.597 458.552 529.231 458.782C528.865 459.013 528.556 459.323 528.328 459.69C528.06 460.092 527.762 460.464 527.524 460.895C527.956 460.657 528.328 460.36 528.729 460.092C529.05 459.818 529.425 459.615 529.83 459.497C530.196 459.405 530.579 459.408 530.943 459.504C531.307 459.6 531.641 459.787 531.913 460.047C532.462 460.599 533.204 460.914 533.982 460.925L533.729 459.764ZM391.112 503.643C391.433 503.369 391.808 503.166 392.213 503.048C392.579 502.956 392.962 502.959 393.326 503.055C393.69 503.151 394.024 503.338 394.297 503.598C394.705 504.007 395.224 504.288 395.789 504.407C396.354 504.526 396.942 504.477 397.481 504.268C397.983 504.052 398.412 503.696 398.716 503.241C398.983 502.839 399.281 502.468 399.519 502.036C399.088 502.274 398.716 502.572 398.299 502.839C397.98 503.107 397.603 503.296 397.198 503.39C396.825 503.469 396.438 503.452 396.074 503.34C395.709 503.228 395.379 503.025 395.115 502.75C394.812 502.442 394.443 502.206 394.036 502.061C393.629 501.915 393.194 501.864 392.764 501.912C392.334 501.959 391.921 502.103 391.555 502.334C391.189 502.564 390.88 502.874 390.651 503.241C390.383 503.643 390.086 504.03 389.848 504.446C390.398 504.164 390.77 503.896 391.172 503.628L391.112 503.643ZM386.812 413.996C387.126 413.711 387.504 413.507 387.913 413.401C388.278 413.302 388.663 413.301 389.029 413.398C389.394 413.494 389.728 413.685 389.997 413.952C390.407 414.358 390.926 414.636 391.491 414.752C392.057 414.868 392.644 414.818 393.181 414.606C393.678 414.396 394.102 414.044 394.401 413.595C394.669 413.178 394.966 412.806 395.219 412.374C394.788 412.613 394.401 412.91 393.999 413.178C393.684 413.46 393.298 413.65 392.883 413.729C392.514 413.811 392.129 413.797 391.767 413.687C391.405 413.578 391.077 413.377 390.815 413.104C390.392 412.707 389.863 412.442 389.292 412.341C388.721 412.241 388.134 412.309 387.601 412.538C387.109 412.765 386.692 413.126 386.396 413.58C386.128 413.996 385.845 414.368 385.592 414.8C386.083 414.547 386.47 414.249 386.872 413.981L386.812 413.996Z" fill="white"/>
<path d="M396.29 364.404C394.654 370.356 393.067 376.308 391.529 382.259C391.722 379.655 392.005 377.066 392.347 374.477C392.347 374.329 392.139 374.254 392.094 374.477C391.46 377.689 391.107 380.95 391.038 384.223C389.193 391.415 387.467 398.631 385.86 405.872C382.81 419.755 380.087 433.756 377.825 447.787C376.561 455.717 375.579 463.678 374.225 471.593C374.225 471.742 374.433 471.802 374.463 471.593C375.698 464.585 377.349 457.622 378.926 450.658C380.504 443.695 381.902 436.821 383.39 429.902C386.277 415.96 389.342 402.063 392.199 388.136C393.82 380.28 395.323 372.409 396.945 364.568C396.956 364.525 396.958 364.48 396.951 364.436C396.945 364.393 396.93 364.35 396.907 364.312C396.861 364.236 396.786 364.18 396.7 364.159C396.613 364.137 396.521 364.151 396.444 364.197C396.367 364.243 396.312 364.317 396.29 364.404V364.404Z" fill="#263238"/>
<path d="M389.312 271.722C391.291 282.554 385.19 292.746 375.683 294.487C366.175 296.228 356.875 288.848 354.852 278.016C352.828 267.184 358.959 256.977 368.466 255.251C377.974 253.525 387.333 260.89 389.312 271.722Z" fill="#455A64"/>
<path d="M395.011 271.38C397.213 283.432 390.428 294.77 379.864 296.675C369.299 298.579 358.929 290.41 356.727 278.358C354.524 266.306 361.309 254.968 371.874 253.064C382.438 251.159 392.808 259.328 395.011 271.38Z" fill="#C7C7C7"/>
<path d="M425.171 356.429C435.943 356.429 449.647 336.551 453.441 322.207C453.694 321.225 441.716 287.494 440.05 280.546C439.708 279.058 399.147 301.644 399.147 301.644C399.147 301.644 406.944 315.14 409.801 327.236C410.068 328.322 414.755 356.474 425.171 356.429Z" fill="#AE7461"/>
<path d="M414.815 329.87C413.408 330.26 411.969 330.524 410.515 330.658C410.336 329.81 410.187 329.096 410.083 328.546C410.089 328.521 410.089 328.496 410.083 328.471C410.09 328.407 410.09 328.342 410.083 328.278C410.083 328.069 410.009 327.846 409.949 327.623C409.956 327.579 409.956 327.534 409.949 327.489V327.311C409.291 324.607 408.476 321.945 407.509 319.335C405.614 314.284 403.398 309.359 400.873 304.59C400.665 304.193 400.471 303.836 400.293 303.519L399.341 301.763L400.412 301.153L401.9 300.365L402.852 299.844L404.027 299.189L405.114 298.594L405.322 298.475L406.81 297.701L407.137 297.523L408.551 296.749L409.295 296.347L411.586 295.097L413.342 294.145L414.83 293.342L419.918 290.604L421.555 289.711L427.432 286.616L428.697 285.962L429.322 285.441L430.319 284.92L432.461 283.834L433.771 283.179C434.411 282.852 435.006 282.569 435.571 282.301C435.854 282.153 436.137 282.034 436.39 281.914C437.163 281.543 437.877 281.245 438.383 281.022L438.74 280.873C439.246 292.657 438.249 323.591 414.815 329.87Z" fill="#263238"/>
<path d="M427.923 228.409C437.52 241.934 444.067 288.03 436.598 301.317C425.766 320.541 400.814 330.346 382.661 315.675C365.074 301.466 357.619 241.28 366.636 228.424C379.908 209.557 413.729 208.456 427.923 228.409Z" fill="#AE7461"/>
<path d="M393.612 269.074C393.612 268.94 393.865 269.178 393.88 269.312C394.237 272.422 395.175 275.933 398.135 276.558C398.225 276.558 398.24 276.737 398.135 276.737C394.565 276.796 393.374 272.124 393.612 269.074Z" fill="#263238"/>
<path d="M395.829 265.458C400.769 264.357 402.629 274.386 398.046 275.338C393.464 276.29 391.693 266.396 395.829 265.458Z" fill="#263238"/>
<path d="M376.59 272.764C376.59 272.645 376.382 272.942 376.397 273.076C377.081 276.141 377.334 279.757 374.731 281.304C374.656 281.304 374.731 281.513 374.731 281.483C378.108 280.367 377.721 275.561 376.59 272.764Z" fill="#263238"/>
<path d="M373.243 270.056C368.213 270.606 369.672 280.62 374.344 280.114C379.016 279.608 377.453 269.595 373.243 270.056Z" fill="#263238"/>
<path d="M398.909 260.146C397.53 260.009 396.159 259.796 394.803 259.507C393.316 259.479 391.881 258.955 390.726 258.019C390.421 257.656 390.243 257.204 390.219 256.732C390.195 256.259 390.326 255.791 390.592 255.4C391.244 254.718 392.066 254.221 392.973 253.96C393.88 253.698 394.84 253.682 395.755 253.912C397.683 254.094 399.475 254.985 400.784 256.412C401.069 256.752 401.249 257.169 401.3 257.61C401.352 258.051 401.273 258.498 401.073 258.895C400.874 259.292 400.563 259.622 400.179 259.844C399.794 260.067 399.353 260.172 398.909 260.146Z" fill="#263238"/>
<path d="M368.452 265.756C369.736 265.237 370.993 264.651 372.216 264C373.628 263.556 374.856 262.662 375.713 261.456C375.906 261.024 375.951 260.54 375.841 260.08C375.731 259.619 375.471 259.209 375.102 258.911C374.288 258.433 373.361 258.18 372.417 258.18C371.472 258.18 370.545 258.433 369.731 258.911C367.92 259.612 366.442 260.973 365.595 262.72C365.422 263.127 365.371 263.576 365.449 264.011C365.527 264.446 365.729 264.849 366.032 265.171C366.335 265.492 366.725 265.719 367.155 265.823C367.584 265.927 368.035 265.904 368.452 265.756V265.756Z" fill="#263238"/>
<path d="M402.54 297.002C401.944 297.865 401.394 298.996 400.293 299.293C399.14 299.489 397.958 299.439 396.826 299.144C396.803 299.134 396.776 299.133 396.752 299.141C396.728 299.149 396.708 299.166 396.695 299.188C396.682 299.21 396.678 299.236 396.683 299.26C396.688 299.285 396.702 299.308 396.722 299.323C397.275 299.847 397.961 300.211 398.705 300.376C399.449 300.541 400.224 300.501 400.948 300.26C401.545 299.981 402.047 299.531 402.388 298.967C402.73 298.403 402.896 297.75 402.867 297.091C402.882 296.898 402.629 296.883 402.54 297.002Z" fill="#263238"/>
<path d="M397.585 288.417C397.026 289.779 396.191 291.01 395.134 292.034C394.077 293.059 392.819 293.853 391.44 294.368C390.244 294.84 388.986 295.136 387.705 295.246C387.458 295.268 387.209 295.268 386.961 295.246C386.733 295.261 386.505 295.261 386.277 295.246C386.106 295.247 385.94 295.192 385.803 295.09C385.666 294.988 385.566 294.844 385.518 294.681V294.681C385.51 294.577 385.51 294.472 385.518 294.368V294.368V294.1C385.012 291.735 384.566 288.149 384.566 288.149C383.777 288.744 379.73 291.556 379.566 290.306C378.257 279.891 376.799 268.374 377.691 257.766C377.706 257.7 377.743 257.641 377.796 257.599C377.849 257.557 377.914 257.534 377.982 257.534C378.049 257.534 378.114 257.557 378.167 257.599C378.22 257.641 378.257 257.7 378.272 257.766C379.923 267.705 379.76 277.852 381.322 287.851C382.756 286.824 384.329 286.007 385.994 285.426C386.351 285.426 386.723 292.494 387.035 293.535V293.654C391.112 293.416 393.895 291.645 397.272 288.238C397.436 287.941 397.719 288.104 397.585 288.417Z" fill="#263238"/>
<path d="M388.88 293.773C390.494 295.237 392.456 296.261 394.579 296.749C395.747 296.967 396.953 296.817 398.031 296.317C400.367 295.216 400.01 292.94 399.192 291.095C398.753 290.114 398.199 289.19 397.54 288.342C395.307 291.031 392.273 292.934 388.88 293.773Z" fill="#263238"/>
<path d="M394.579 296.704C395.747 296.923 396.954 296.772 398.031 296.273C400.367 295.172 400.01 292.895 399.192 291.05C396.588 291.824 394.326 294.1 394.579 296.704Z" fill="#FF99BA"/>
<path opacity="0.2" d="M426.197 247.767C429.263 251.65 435.958 260.965 438.235 261.084C435.884 246.071 432.06 232.962 426.078 225.984C423.604 223.102 420.624 220.697 417.285 218.887C418.148 222.844 422.939 243.779 426.197 247.767Z" fill="#263238"/>
<path d="M381.471 238.646C383.327 240.386 385.598 241.621 388.067 242.234C390.537 242.846 393.122 242.814 395.576 242.143C398.089 241.459 400.386 240.143 402.246 238.32C404.106 236.496 405.467 234.227 406.2 231.727C406.2 231.696 406.212 231.665 406.235 231.643C406.257 231.621 406.287 231.608 406.319 231.608C406.35 231.608 406.381 231.621 406.403 231.643C406.425 231.665 406.438 231.696 406.438 231.727C405.888 234.409 404.618 236.891 402.765 238.907C400.912 240.923 398.545 242.396 395.918 243.169C393.292 243.78 390.551 243.689 387.97 242.906C385.39 242.122 383.061 240.674 381.218 238.706C381.23 238.684 381.246 238.666 381.266 238.652C381.285 238.637 381.308 238.627 381.331 238.621C381.355 238.616 381.38 238.615 381.404 238.619C381.428 238.623 381.45 238.633 381.471 238.646V238.646Z" fill="#263238"/>
<path d="M392.69 200.303C401.305 199.529 409.726 203.397 413.52 208.903C415.64 212.032 416.636 215.788 416.347 219.556C416.347 219.705 416.035 219.705 416.035 219.556C415.848 216.272 414.783 213.097 412.951 210.365C411.119 207.633 408.587 205.442 405.62 204.022C402.355 202.366 398.749 201.49 395.088 201.464C391.427 201.438 387.809 202.263 384.521 203.874C381.3 205.367 378.719 207.964 377.245 211.194C377.111 211.521 376.442 211.387 376.546 211.06C378.227 205.421 384.893 201.017 392.69 200.303Z" fill="#263238"/>
<path d="M344.883 224.556C345.81 220.153 348.267 216.22 351.817 213.456C356.712 209.602 362.738 209.409 368.704 209.349C368.868 209.349 368.883 209.602 368.704 209.602C363.616 209.676 358.453 210.048 354.093 212.935C350.475 215.297 347.788 218.842 346.49 222.963C345.279 227.187 345.629 231.705 347.476 235.691C349.323 239.677 352.543 242.865 356.548 244.672C358.882 245.651 361.392 246.141 363.923 246.113C366.454 246.085 368.952 245.539 371.264 244.508C371.442 244.434 371.621 244.687 371.427 244.776C368.317 246.304 364.842 246.936 361.392 246.6C357.943 246.264 354.655 244.974 351.898 242.875C349.14 240.776 347.022 237.95 345.78 234.714C344.539 231.478 344.223 227.961 344.868 224.556H344.883Z" fill="#263238"/>
<path d="M432.729 238.259C432.729 238.259 439.083 221.892 431.241 213.857C426.778 209.275 414.056 211.432 414.056 211.432C412.057 209.1 409.615 207.186 406.872 205.802C404.13 204.418 401.14 203.591 398.076 203.368C387.065 202.162 375.043 209.929 375.043 209.929C375.043 209.929 364.166 205.287 355.254 211.864C342.845 221.029 346.892 241.101 361.042 246.086C370.996 249.552 382.78 239.732 382.78 239.732C384.03 239.732 397.496 245.848 405.694 233.513C405.694 233.513 414.22 239.464 420.573 233.855C421.903 235.747 423.783 237.184 425.958 237.972C428.132 238.76 430.496 238.86 432.729 238.259V238.259Z" fill="#263238"/>
<path d="M400.069 282.629C398.309 282.742 396.544 282.505 394.875 281.934C393.206 281.362 391.666 280.467 390.344 279.298C389.023 278.13 387.945 276.712 387.172 275.126C386.4 273.54 385.949 271.817 385.845 270.056V270.056C385.69 267.556 386.239 265.063 387.43 262.86C388.62 260.656 390.405 258.831 392.581 257.591C394.757 256.351 397.237 255.747 399.74 255.846C402.242 255.945 404.667 256.743 406.738 258.151C408.81 259.559 410.445 261.52 411.458 263.81C412.471 266.101 412.821 268.629 412.469 271.109C412.117 273.588 411.076 275.92 409.466 277.838C407.855 279.756 405.739 281.183 403.358 281.959C402.294 282.321 401.19 282.546 400.069 282.629V282.629ZM387.66 269.937C387.803 272.23 388.622 274.43 390.014 276.258C391.407 278.085 393.31 279.459 395.483 280.206C397.656 280.953 400.001 281.038 402.223 280.452C404.445 279.866 406.443 278.634 407.965 276.913C409.487 275.191 410.464 273.057 410.773 270.78C411.083 268.504 410.71 266.186 409.703 264.121C408.695 262.056 407.098 260.336 405.113 259.178C403.129 258.02 400.845 257.477 398.552 257.617C397.586 257.68 396.632 257.86 395.71 258.153C393.253 258.949 391.13 260.537 389.673 262.67C388.216 264.803 387.508 267.359 387.66 269.937Z" fill="#A588B0"/>
<path d="M372.231 288C366.83 289.056 361.265 284.012 359.852 276.751C359.146 273.477 359.484 270.063 360.819 266.991C361.315 265.639 362.151 264.437 363.247 263.502C364.342 262.568 365.661 261.931 367.074 261.655C368.487 261.378 369.948 261.47 371.316 261.923C372.683 262.375 373.91 263.173 374.88 264.238C377.273 266.576 378.875 269.604 379.462 272.898C380.801 279.772 377.974 286.289 373.079 287.777C372.801 287.869 372.518 287.943 372.231 288V288ZM362.455 267.75C361.271 270.476 360.975 273.505 361.607 276.409C362.842 282.688 367.455 287.107 371.889 286.244C376.323 285.381 378.927 279.549 377.707 273.255C377.188 270.329 375.774 267.636 373.659 265.547C372.864 264.718 371.882 264.092 370.794 263.722C369.707 263.352 368.546 263.248 367.41 263.42C367.187 263.453 366.968 263.508 366.756 263.583C365.789 263.942 364.908 264.498 364.168 265.215C363.428 265.932 362.845 266.795 362.455 267.75Z" fill="#A588B0"/>
<path d="M386.589 271.484L387.467 269.922C385.131 268.627 380.028 267.273 377.528 271.41L379.016 272.362C381.322 268.657 386.381 271.38 386.589 271.484Z" fill="#A588B0"/>
<path d="M445.957 263.375L447.37 262.259C446.849 261.604 442.162 255.861 438.1 255.995C434.321 256.129 411.139 262.958 410.157 263.256L410.663 264.982C417.314 263.003 435.229 257.885 438.16 257.781C440.838 257.706 444.692 261.798 445.957 263.375Z" fill="#A588B0"/>
<path d="M430.438 266.931C430.438 266.931 435.928 249.731 443.442 251.219C450.956 252.707 449.9 275.576 443.234 280.724C442.425 281.444 441.48 281.992 440.454 282.336C439.428 282.68 438.343 282.813 437.264 282.727C436.185 282.641 435.135 282.337 434.177 281.835C433.218 281.332 432.372 280.64 431.688 279.802L430.438 266.931Z" fill="#AE7461"/>
<path d="M442.981 257.766C443.1 257.766 443.174 257.885 443.085 257.959C438.458 261.738 437.208 267.512 436.836 273.195C437.803 270.755 439.603 269.014 442.787 270.071C442.966 270.071 442.892 270.383 442.787 270.398C441.766 270.392 440.767 270.701 439.928 271.285C439.088 271.868 438.45 272.696 438.1 273.657C437.529 275.265 437.135 276.932 436.925 278.626C436.821 279.177 435.898 279.192 435.913 278.626V278.492C433.652 271.752 435.958 260.697 442.981 257.766Z" fill="#263238"/>
<path d="M438.74 253.897C438.74 253.897 437.669 229.808 429.203 217.414C419.77 203.606 393.731 194.366 375.103 209.974C375.103 209.974 402.153 202.936 419.874 219.571C428.013 227.219 430.84 255.459 430.84 255.459L438.74 253.897Z" fill="#C7C7C7"/>
<path d="M439.297 288.588C449.99 287.504 457.657 276.743 456.421 264.554C455.185 252.364 445.514 243.361 434.821 244.445C424.127 245.53 416.46 256.291 417.696 268.48C418.932 280.67 428.603 289.673 439.297 288.588Z" fill="#C7C7C7"/>
<path d="M423.281 267.199C424.397 278.165 433.086 286.259 442.698 285.277C452.31 284.295 459.199 274.624 458.098 263.673C456.997 252.722 448.293 244.627 438.666 245.595C429.039 246.562 422.165 256.248 423.281 267.199Z" fill="#455A64"/>
<path d="M481.83 332.221C510.666 363.11 579.274 479.018 557.029 500.355C534.785 521.691 411.363 492.915 376.695 476.444C366.369 471.534 405.56 407.226 417.687 405.724C427.775 404.474 479.375 428.042 480.863 425.066C482.56 421.719 470.835 400.188 458.426 355.358C444.112 303.742 469.094 318.577 481.83 332.221Z" fill="#AE7461"/>
<path d="M366.443 384.997C341.386 381.515 334.408 384.461 314.827 370.281C301.971 360.982 290.515 365.193 297.835 379.983C309.842 404.161 341.237 415.454 353.245 416.243L366.443 384.997Z" fill="#AE7461"/>
<path d="M433.027 409.131C433.027 409.131 404.861 393.493 378.525 387.125C360.298 382.735 319.603 377.572 280.665 417.731C271.425 427.268 265.012 447.385 285.753 437.312C300.484 430.14 307.656 421.153 317 418.549C317 418.549 311.896 445.123 321.791 453.991C330.453 461.757 339.657 468.897 349.332 475.358C350.917 473.855 352.408 472.254 353.796 470.567C353.796 470.567 363.839 478.006 382.721 476.191L433.027 409.131Z" fill="#AE7461"/>
<path d="M360.462 385.711C351.757 390.249 333.456 400.188 321.315 413.52C307.834 428.325 285.843 460.494 296.868 470.343C304.963 477.56 314.441 466.014 314.441 466.014C314.441 466.014 308.162 481.22 316.896 486.145C324.856 490.609 331.641 481.265 331.641 481.265C331.641 481.265 329.424 491.144 337.92 493.986C348.142 497.409 351.133 476.131 364.479 470.641C367.47 469.421 360.462 385.711 360.462 385.711Z" fill="#AE7461"/>
<path d="M339.333 425.156C331.893 430.78 318.101 447.891 314.306 465.612C314.217 466.014 314.47 466.296 314.634 465.954C321.234 451.445 329.578 437.794 339.482 425.304C339.541 425.2 339.422 425.096 339.333 425.156Z" fill="#263238"/>
<path d="M353.9 439.202C347.948 444.722 334.557 463.008 331.313 481.086C331.239 481.488 331.522 481.756 331.67 481.399C337.501 466.577 344.988 452.461 353.989 439.321C354.108 439.231 353.974 439.142 353.9 439.202Z" fill="#263238"/>
<path d="M316.985 418.386C308.816 420.796 303.504 424.799 296.6 429.59C293.22 432.005 289.708 434.23 286.081 436.255C282.748 438.056 277.853 440.719 274.297 437.952C272.333 436.389 272.362 433.488 272.809 431.286C273.282 428.744 274.297 426.333 275.785 424.218C275.859 424.114 275.68 423.98 275.606 424.084C274.198 425.927 273.061 427.961 272.228 430.125C271.34 432.129 271.081 434.354 271.484 436.508C272.69 440.972 278.002 441.597 281.751 440.362C283.997 439.544 286.156 438.502 288.194 437.252C290.173 436.107 292.092 434.887 293.982 433.607C297.865 430.973 301.6 428.131 305.453 425.468C309.195 422.95 313.097 420.679 317.134 418.668C317.171 418.649 317.199 418.615 317.212 418.574C317.224 418.534 317.22 418.49 317.2 418.453C317.181 418.415 317.147 418.387 317.107 418.374C317.066 418.362 317.022 418.366 316.985 418.386V418.386Z" fill="#263238"/>
<path d="M299.874 447.132C301.986 442.475 313.428 423.073 317.148 418.579C317.162 418.556 317.168 418.529 317.165 418.503C317.162 418.476 317.15 418.452 317.131 418.433C317.112 418.414 317.087 418.402 317.061 418.399C317.034 418.396 317.007 418.401 316.985 418.415C310.616 424.456 300.379 440.481 297.999 445.629C295.618 450.777 292.925 457.19 292.925 462.844C292.925 471.385 298.579 472.992 300.677 473.409C303.161 473.861 305.724 473.446 307.938 472.233C310.531 470.637 312.773 468.531 314.53 466.043C314.619 465.924 314.455 465.761 314.351 465.88C311.375 469.242 306.48 472.561 301.853 471.95C300.827 471.852 299.832 471.55 298.925 471.062C298.018 470.574 297.217 469.91 296.57 469.109C295.306 467.055 294.82 464.616 295.202 462.234C295.886 456.971 297.466 451.863 299.874 447.132V447.132Z" fill="#263238"/>
<path d="M331.313 481.086C330.123 482.098 327.683 485.639 323.799 486.398C322.42 486.773 320.971 486.807 319.576 486.496C318.181 486.185 316.883 485.538 315.794 484.613C313.794 482.524 312.689 479.737 312.715 476.846C313.037 473.225 313.634 469.634 314.5 466.103C314.5 465.939 314.336 465.865 314.292 466.029C312.865 469.728 311.997 473.62 311.718 477.575C311.664 479.14 311.926 480.701 312.488 482.163C313.051 483.626 313.902 484.959 314.991 486.086C316.163 487.188 317.617 487.945 319.193 488.273C320.768 488.601 322.403 488.488 323.918 487.946C325.406 487.38 330.242 484.3 331.626 481.265C331.67 481.19 331.373 481.042 331.313 481.086Z" fill="#263238"/>
<path d="M363.675 469.109C362.361 469.989 361.149 471.012 360.06 472.159C358.855 473.319 357.694 474.525 356.578 475.745C354.319 478.224 352.324 480.931 350.626 483.824C348.9 486.725 347.308 489.954 344.496 491.963C343.162 492.981 341.54 493.552 339.863 493.594C338.185 493.637 336.537 493.149 335.152 492.201C333.694 491.141 332.643 489.613 332.176 487.871C331.62 485.98 331.438 483.999 331.641 482.038C331.641 482.007 331.628 481.977 331.606 481.954C331.583 481.932 331.553 481.919 331.522 481.919C331.49 481.919 331.46 481.932 331.437 481.954C331.415 481.977 331.403 482.007 331.403 482.038C331.093 483.782 330.954 485.551 330.986 487.321C331.139 488.929 331.714 490.469 332.652 491.784C333.665 493.077 335.015 494.065 336.554 494.64C338.092 495.215 339.759 495.354 341.372 495.043C344.943 494.388 347.546 491.71 349.496 488.808C351.638 485.58 353.424 482.143 355.73 479.003C356.935 477.352 358.125 475.685 359.45 474.123C360.774 472.56 362.425 471.043 363.765 469.347C363.973 469.213 363.854 469.019 363.675 469.109Z" fill="#263238"/>
<path d="M373.659 476.399C368.996 475.886 364.393 474.93 359.911 473.543C359.762 473.543 359.569 473.9 359.703 473.974C361.869 474.967 364.14 475.716 366.473 476.206C368.823 476.711 371.235 476.862 373.63 476.652C373.749 476.637 373.808 476.414 373.659 476.399Z" fill="#263238"/>
<path d="M527.524 447.623C513.14 437.887 497.376 430.363 480.759 425.304C476.057 423.817 471.311 422.567 466.564 421.272C466.542 421.281 466.522 421.296 466.508 421.316C466.494 421.336 466.487 421.359 466.487 421.384C466.487 421.408 466.494 421.432 466.508 421.452C466.522 421.472 466.542 421.487 466.564 421.495C474.835 424.078 482.952 427.128 490.877 430.631C498.812 434.043 506.649 437.595 514.386 441.285C518.85 443.383 523.075 445.674 527.405 447.906C527.424 447.924 527.448 447.937 527.473 447.944C527.499 447.951 527.525 447.952 527.551 447.947C527.577 447.941 527.601 447.93 527.622 447.913C527.642 447.896 527.658 447.874 527.668 447.85C527.678 447.826 527.683 447.799 527.68 447.773C527.678 447.747 527.67 447.721 527.655 447.699C527.641 447.677 527.622 447.658 527.599 447.645C527.576 447.632 527.551 447.624 527.524 447.623Z" fill="#263238"/>
<path d="M540.915 405.069L470.909 402.748C470.909 402.748 457.875 368.198 452.92 337.458C447.965 306.718 473.141 316.107 499.417 349.019C525.694 381.932 540.915 405.069 540.915 405.069Z" fill="#A588B0"/>
<path d="M478.691 377.081C478.367 377.349 477.985 377.538 477.575 377.632C477.204 377.711 476.819 377.694 476.457 377.581C476.095 377.469 475.768 377.267 475.507 376.992C475.202 376.686 474.833 376.453 474.426 376.309C474.019 376.165 473.585 376.115 473.157 376.163C472.728 376.21 472.315 376.353 471.949 376.582C471.583 376.81 471.273 377.118 471.043 377.483C470.775 377.885 470.478 378.257 470.24 378.688C470.671 378.45 471.043 378.153 471.46 377.885C471.776 377.605 472.153 377.401 472.561 377.29C472.926 377.198 473.309 377.201 473.673 377.297C474.037 377.393 474.371 377.58 474.644 377.84C475.051 378.246 475.567 378.525 476.129 378.644C476.692 378.763 477.276 378.716 477.813 378.51C478.315 378.294 478.744 377.937 479.048 377.483C479.316 377.081 479.613 376.709 479.851 376.278C479.465 376.516 479.093 376.813 478.691 377.081ZM500.742 364.211C500.638 363.735 500.578 363.259 500.444 362.723C500.31 363.199 500.251 363.675 500.161 364.211C500.133 364.629 500.011 365.036 499.804 365.401C499.613 365.726 499.342 365.997 499.016 366.187C498.691 366.377 498.321 366.481 497.944 366.487C497.366 366.488 496.801 366.658 496.317 366.975C495.834 367.292 495.453 367.743 495.222 368.273C495.02 368.778 494.968 369.331 495.073 369.865C495.162 370.341 495.222 370.817 495.355 371.353C495.489 370.877 495.549 370.401 495.653 369.865C495.684 369.447 495.817 369.044 496.04 368.689C496.248 368.371 496.532 368.109 496.868 367.93C497.203 367.751 497.579 367.659 497.959 367.663C498.383 367.658 498.801 367.56 499.182 367.375C499.563 367.19 499.899 366.923 500.165 366.593C500.431 366.263 500.621 365.879 500.72 365.467C500.82 365.055 500.827 364.626 500.742 364.211ZM476.147 325.719C476.131 325.887 476.131 326.056 476.147 326.224C476.251 326.686 476.295 327.162 476.429 327.638C476.563 327.162 476.623 326.686 476.727 326.224C476.593 326.016 476.385 325.867 476.176 325.719H476.147ZM526.036 383.941C525.512 383.928 525.015 383.709 524.652 383.33C524.242 382.924 523.723 382.646 523.158 382.53C522.592 382.414 522.005 382.464 521.468 382.676C520.967 382.886 520.538 383.238 520.233 383.688C519.965 384.104 519.668 384.476 519.43 384.908C519.861 384.67 520.233 384.372 520.65 384.104C520.961 383.826 521.341 383.635 521.751 383.554C522.123 383.472 522.509 383.486 522.874 383.595C523.238 383.705 523.569 383.905 523.834 384.179C524.21 384.535 524.673 384.787 525.177 384.91C525.681 385.033 526.208 385.022 526.706 384.878L526.036 383.941ZM477.59 349.049C477.169 349.011 476.762 348.879 476.399 348.662C476.082 348.454 475.823 348.168 475.646 347.833C475.47 347.497 475.381 347.122 475.388 346.743C475.371 346.162 475.184 345.599 474.851 345.123C474.518 344.647 474.053 344.279 473.513 344.064C473.002 343.886 472.451 343.849 471.921 343.96C471.445 344.064 470.969 344.124 470.433 344.258C470.909 344.377 471.385 344.436 471.921 344.541C472.344 344.569 472.756 344.691 473.126 344.898C473.449 345.091 473.718 345.363 473.908 345.688C474.098 346.013 474.203 346.381 474.212 346.758C474.213 347.336 474.382 347.901 474.7 348.385C475.017 348.868 475.468 349.249 475.998 349.481C476.503 349.682 477.056 349.734 477.59 349.629C478.051 349.525 478.527 349.481 479.003 349.347C478.572 349.213 478.096 349.153 477.634 349.049H477.59ZM509.788 398.016C509.369 397.981 508.966 397.843 508.613 397.614C508.291 397.41 508.027 397.126 507.848 396.789C507.668 396.453 507.578 396.076 507.586 395.695C507.585 395.271 507.489 394.852 507.304 394.47C507.12 394.087 506.853 393.751 506.522 393.486C506.191 393.22 505.804 393.033 505.391 392.936C504.978 392.839 504.549 392.836 504.134 392.927C503.658 393.032 503.182 393.076 502.646 393.21C503.122 393.344 503.598 393.404 504.134 393.508C504.554 393.529 504.962 393.652 505.324 393.865C505.652 394.054 505.924 394.325 506.114 394.651C506.305 394.977 506.407 395.347 506.411 395.725C506.414 396.3 506.585 396.863 506.902 397.343C507.219 397.824 507.668 398.202 508.196 398.433C508.698 398.646 509.253 398.704 509.788 398.596C510.264 398.492 510.74 398.433 511.276 398.299C510.785 398.165 510.309 398.105 509.833 398.016H509.788Z" fill="white"/>
<path d="M473.781 402.51C473.394 402.51 470.939 402.078 470.924 402.078C470.745 401.171 466.758 386.723 465.701 383.583C463.574 377.171 461.059 370.877 458.634 364.583C458.612 364.55 458.581 364.526 458.544 364.513C458.508 364.5 458.468 364.499 458.431 364.511C458.394 364.523 458.362 364.547 458.339 364.578C458.317 364.61 458.305 364.648 458.306 364.687C459.884 370.103 461.372 375.549 462.993 380.965C462.502 380.191 462.026 379.477 461.505 378.644C460.568 377.037 459.735 375.37 458.857 373.733C458.837 373.704 458.808 373.683 458.775 373.674C458.741 373.664 458.705 373.666 458.673 373.681C458.641 373.695 458.615 373.72 458.6 373.751C458.585 373.783 458.581 373.819 458.589 373.853C459.338 376.122 460.373 378.287 461.669 380.295C462.227 381.156 462.838 381.981 463.499 382.765L463.901 384.119C464.898 387.273 470.016 402.911 470.284 402.926H473.662C473.959 402.986 473.959 402.51 473.781 402.51Z" fill="#263238"/>
<path d="M529.563 391.514C514.475 390.383 499.269 390.309 484.122 390.547C479.827 390.606 475.536 390.77 471.251 391.038C471.232 391.046 471.215 391.059 471.204 391.076C471.192 391.093 471.186 391.114 471.186 391.135C471.186 391.155 471.192 391.176 471.204 391.193C471.215 391.21 471.232 391.224 471.251 391.231C478.81 391.633 486.368 391.722 493.942 391.871C501.515 392.02 509.119 392.079 516.707 392.005C520.992 392.005 525.277 391.931 529.563 391.797C529.592 391.787 529.618 391.768 529.637 391.743C529.655 391.717 529.665 391.687 529.665 391.655C529.665 391.624 529.655 391.593 529.637 391.568C529.618 391.543 529.592 391.524 529.563 391.514V391.514Z" fill="#263238"/>
<path d="M86.3207 520.683H290.868L264.465 377.141C264.016 374.671 262.714 372.438 260.787 370.83C258.859 369.221 256.429 368.34 253.919 368.34H70.127C68.5472 368.339 66.9868 368.688 65.5575 369.361C64.1282 370.034 62.8652 371.015 61.859 372.232C60.8527 373.45 60.128 374.876 59.7367 376.406C59.3454 377.937 59.2971 379.535 59.5953 381.086L86.3207 520.683Z" fill="#455A64"/>
<path d="M290.868 520.683H368.448L368.125 520.449C361.207 515.254 352.849 512.333 344.202 512.088L288.727 510.415L290.868 520.683Z" fill="#455A64"/>
<path d="M241.73 368.472C241.73 368.472 242.302 368.369 243.387 368.354C244.97 368.375 246.526 368.762 247.934 369.484C250.162 370.616 252.042 372.329 253.376 374.442C255.065 377.299 256.199 380.449 256.721 383.727C257.395 387.35 257.982 391.383 258.701 395.681C259.42 399.979 260.168 404.585 261.136 409.396C262.911 419.048 265.023 429.623 267.326 440.712C271.946 462.876 276.215 482.927 279.06 497.493C280.527 504.827 281.554 510.694 282.287 514.757C282.654 516.752 282.933 518.336 283.138 519.466L283.387 520.683C283.408 520.823 283.443 520.961 283.49 521.094C283.506 520.953 283.506 520.81 283.49 520.669C283.49 520.346 283.387 519.935 283.329 519.436L282.61 514.713C281.965 510.606 280.952 504.695 279.676 497.39C277.021 482.795 272.826 462.715 268.206 440.551C265.903 429.477 263.805 418.901 261.957 409.264C261.033 404.453 260.226 399.862 259.464 395.578C258.701 391.295 258.099 387.276 257.381 383.609C256.824 380.28 255.634 377.088 253.875 374.207C252.469 372.061 250.507 370.338 248.198 369.22C246.744 368.508 245.138 368.16 243.519 368.208C242.913 368.208 242.31 368.297 241.73 368.472V368.472Z" fill="#263238"/>
<path d="M155.349 441.211C155.346 443.171 155.925 445.087 157.012 446.717C158.098 448.348 159.645 449.619 161.454 450.37C163.264 451.122 165.256 451.319 167.178 450.937C169.1 450.556 170.866 449.612 172.251 448.227C173.637 446.841 174.58 445.076 174.962 443.154C175.343 441.232 175.146 439.24 174.395 437.43C173.643 435.62 172.372 434.074 170.742 432.987C169.111 431.9 167.195 431.322 165.235 431.325C163.937 431.325 162.652 431.581 161.452 432.077C160.253 432.574 159.163 433.302 158.245 434.22C157.327 435.138 156.599 436.228 156.102 437.428C155.605 438.627 155.349 439.913 155.349 441.211Z" fill="#F5F5F5"/>
<path d="M503.703 463.364L497.687 538.898C497.522 540.977 495.786 542.58 493.7 542.58H457.522C455.436 542.58 453.7 540.977 453.535 538.898L447.519 463.364H503.703Z" fill="#EBCEF6"/>
<path opacity="0.1" d="M503.703 463.364L497.687 538.898C497.522 540.977 495.786 542.58 493.7 542.58H457.522C455.436 542.58 453.7 540.977 453.535 538.898L447.519 463.364H503.703Z" fill="black"/>
<path d="M507.452 456.222H443.398V467.768H507.452V456.222Z" fill="#455A64"/>
<path d="M503.063 456.222H447.787L451.016 443.247H499.834L503.063 456.222Z" fill="#37474F"/>
<path d="M490.743 503.671C490.743 513.953 483.973 522.285 475.611 522.285C467.249 522.285 460.479 513.953 460.479 503.671C460.479 493.39 467.264 485.043 475.611 485.043C483.958 485.043 490.743 493.39 490.743 503.671Z" fill="white"/>
<circle cx="167" cy="148" r="37" fill="#080047"/>
<circle cx="130" cy="245" r="16" fill="#080047"/>
</svg>
